 <svg  version="1.0" xmlns="http://www.w3.org/2000/svg"  width="300.000000pt" height="209.000000pt" viewBox="0 0 300.000000 209.000000"  preserveAspectRatio="xMidYMid meet">  <g transform="translate(0.000000,209.000000) scale(0.100000,-0.100000)" fill="#ffc800" stroke="none"> <path d="M882 1921 c70 -4 130 -10 134 -14 4 -4 -40 -4 -97 -1 -260 16 -456 -79 -572 -276 -105 -181 -116 -413 -26 -579 33 -62 33 -81 0 -25 -12 20 -25 34 -28 30 -11 -10 49 -88 95 -123 79 -60 204 -79 310 -48 51 16 94 46 74 53 -6 2 -23 -3 -39 -11 -52 -27 -134 -40 -183 -29 -30 7 -37 10 -20 11 19 1 12 6 -27 20 -142 49 -211 172 -212 377 -1 168 57 310 174 428 110 111 235 152 440 143 192 -9 305 -50 412 -151 35 -32 76 -79 90 -103 28 -49 43 -52 18 -4 -8 17 -13 31 -10 31 13 0 78 -159 102 -249 22 -82 26 -119 27 -251 1 -180 -17 -267 -85 -404 -128 -259 -363 -424 -549 -387 -30 6 -37 9 -20 11 l25 2 -25 7 c-14 4 -38 11 -55 14 l-30 6 30 -15 30 -15 -39 5 c-43 6 -56 14 -40 24 24 15 39 148 39 359 0 201 1 213 21 235 12 13 29 38 40 56 19 32 34 42 34 20 0 -6 3 -9 6 -6 4 5 7 139 4 208 0 6 -6 10 -14 10 -10 0 -14 -21 -15 -92 -1 -51 -5 -95 -9 -98 -5 -3 -18 -21 -31 -40 -13 -19 -35 -44 -48 -56 -13 -11 -23 -29 -22 -40 10 -133 7 -354 -6 -444 -8 -58 -16 -112 -16 -120 -1 -8 -10 -42 -21 -76 -28 -92 -106 -155 -163 -133 -19 7 -19 8 -1 8 16 1 15 4 -8 22 -44 34 -33 124 22 182 31 32 41 33 84 7 44 -27 55 -25 55 8 0 22 -8 33 -38 50 -44 26 -49 26 -49 9 0 -7 16 -19 36 -26 19 -7 33 -15 30 -18 -3 -4 -24 2 -46 12 -37 17 -41 17 -65 1 -14 -9 -37 -35 -53 -58 -22 -34 -27 -53 -27 -104 0 -34 -3 -60 -7 -58 -5 3 -8 1 -8 -5 0 -19 62 -61 91 -61 72 0 149 66 170 145 6 22 13 45 15 52 2 8 15 8 50 -3 66 -20 179 -18 246 4 161 53 315 205 408 405 72 152 99 317 80 487 -21 197 -73 346 -159 461 -110 147 -311 231 -546 227 l-110 -1 127 -6z"/> <path d="M749 1583 c-19 -32 -33 -139 -20 -147 8 -6 23 -106 41 -286 14 -136 18 -156 31 -143 7 7 7 43 0 114 -15 148 -40 359 -46 395 -4 23 0 35 15 49 11 10 20 24 20 32 0 23 -25 14 -41 -14z"/> <path d="M2624 1438 c1 -113 1 -113 26 -116 20 -2 22 -1 10 7 -12 8 -15 33 -15 112 0 67 -4 103 -11 106 -8 3 -11 -29 -10 -109z"/> <path d="M2042 1533 c2 -5 -9 -20 -24 -34 -41 -41 -60 -117 -65 -272 -4 -92 -2 -142 5 -149 16 -16 20 16 25 173 3 119 6 142 28 185 24 50 54 68 70 42 34 -54 -39 -356 -101 -418 -12 -12 -20 -34 -20 -52 0 -18 -7 -44 -15 -58 -8 -14 -26 -48 -41 -77 -14 -29 -31 -56 -37 -61 -21 -16 -61 -21 -74 -10 -11 8 -12 7 -7 -6 10 -26 41 -38 64 -26 25 13 62 64 85 118 10 23 21 42 24 42 4 0 11 -15 16 -32 6 -19 18 -34 28 -36 17 -4 17 -2 3 27 -27 51 -20 108 25 211 76 177 102 358 58 414 -18 23 -52 37 -47 19z"/> <path d="M966 1470 c-59 -51 -76 -60 -110 -61 l-41 -2 39 -6 c35 -5 38 -7 22 -20 -9 -8 -31 -33 -49 -55 -36 -46 -11 -30 42 27 19 20 40 37 45 37 6 0 28 -17 49 -37 28 -27 36 -31 28 -15 -6 12 -22 29 -35 38 -13 8 -23 22 -22 30 1 8 27 39 56 69 30 30 52 55 50 55 -3 -1 -36 -28 -74 -60z"/> <path d="M530 1518 c0 -2 7 -25 15 -53 14 -43 14 -54 1 -80 -8 -16 -21 -83 -29 -147 -9 -65 -25 -138 -36 -164 -19 -41 -24 -46 -46 -40 -18 5 -25 2 -25 -8 0 -20 23 -26 51 -13 43 21 69 94 87 242 17 138 29 162 46 92 10 -39 26 -50 26 -19 0 16 -33 120 -55 175 -6 13 -35 26 -35 15z"/> <path d="M855 1462 c21 -23 41 -42 42 -42 12 0 -23 42 -49 61 -32 21 -31 21 7 -19z"/> <path d="M1316 1452 c-3 -5 -8 -28 -12 -52 -4 -24 -20 -62 -36 -84 -15 -23 -36 -63 -46 -90 -9 -27 -24 -52 -31 -54 -9 -3 -11 0 -6 7 11 19 -2 53 -35 89 -31 34 -38 69 -20 102 6 12 7 21 1 25 -13 8 -31 -28 -35 -69 -2 -18 -14 -49 -28 -67 -14 -19 -44 -73 -67 -121 -31 -68 -45 -88 -60 -88 -11 0 -22 -4 -26 -9 -10 -16 12 -22 39 -10 18 9 40 41 75 114 27 57 54 106 60 110 16 9 74 -42 83 -72 5 -19 1 -31 -17 -49 -29 -29 -61 -31 -68 -4 -3 11 -11 20 -17 20 -7 0 -10 -7 -6 -15 3 -8 1 -15 -4 -15 -20 0 -9 -30 13 -35 59 -15 125 41 176 151 22 46 44 84 50 84 5 0 23 -8 39 -17 44 -25 52 -80 16 -110 -32 -29 -52 -29 -56 -1 -5 32 -25 33 -31 1 -7 -36 -2 -43 29 -43 50 0 122 56 143 113 14 35 14 47 1 47 -5 0 -10 -9 -10 -19 0 -10 -9 -29 -21 -42 -11 -13 -18 -18 -14 -11 11 21 -3 59 -36 97 -28 32 -31 40 -26 80 6 41 -3 59 -17 37z"/> <path d="M687 1408 c-8 -18 -19 -50 -26 -70 -7 -21 -17 -40 -22 -43 -5 -4 -9 -17 -9 -31 0 -13 -4 -24 -9 -24 -4 0 -6 -11 -3 -25 2 -14 7 -25 11 -25 5 0 78 194 89 238 7 26 -19 10 -31 -20z"/> <path d="M2730 1329 c-30 -16 -63 -29 -72 -29 -16 0 -38 -51 -38 -88 0 -8 -8 -21 -19 -30 -10 -10 -26 -37 -35 -62 -23 -58 -73 -138 -97 -150 -24 -14 -63 -12 -77 2 -20 20 -26 -1 -7 -22 53 -59 149 23 206 174 24 66 39 72 39 17 0 -46 16 -95 29 -87 4 3 4 30 -2 61 -5 31 -6 76 -2 101 5 37 12 48 43 67 20 13 52 29 70 36 17 8 32 20 32 27 0 18 -4 17 -70 -17z"/> <path d="M2485 1270 c3 -5 0 -10 -8 -10 -18 0 -60 -46 -82 -89 -21 -42 -28 -138 -12 -170 7 -14 22 -25 35 -26 22 -2 22 -2 2 17 -31 29 -24 49 36 108 82 81 102 130 68 164 -17 17 -49 22 -39 6z m30 -61 c-8 -23 -112 -139 -125 -139 -10 0 27 109 42 128 21 26 72 52 81 43 5 -5 6 -19 2 -32z"/> <path d="M2260 1202 c0 -4 -10 -12 -22 -17 -13 -6 -35 -34 -50 -64 -45 -88 -35 -201 17 -201 17 0 17 1 2 18 -42 46 -7 211 48 232 36 14 36 13 29 -15 -7 -28 7 -33 26 -10 11 13 11 20 0 40 -12 23 -50 36 -50 17z"/> <path d="M2748 1129 c-28 -61 -43 -81 -65 -90 -20 -7 -33 -7 -45 0 -22 14 -24 -2 -2 -23 21 -21 36 -20 69 6 32 25 101 166 88 179 -4 4 -25 -28 -45 -72z"/> <path d="M1809 1099 c-2 -13 -7 -64 -13 -139 -7 -83 1 -141 20 -147 11 -3 13 271 2 283 -5 4 -8 5 -9 3z"/> <path d="M1636 998 c-3 -18 -8 -49 -11 -69 -3 -21 -12 -42 -20 -49 -16 -13 -60 -148 -51 -157 10 -10 16 1 36 72 25 88 40 104 40 43 0 -51 7 -78 21 -78 5 0 9 61 9 135 0 79 -4 135 -10 135 -5 0 -11 -15 -14 -32z"/> <path d="M2316 986 c-38 -65 -73 -89 -118 -83 -39 5 -46 -1 -26 -21 36 -36 107 2 154 81 37 63 38 67 25 67 -5 0 -21 -20 -35 -44z"/> <path d="M2103 908 c-38 -57 -75 -75 -108 -54 -32 21 -38 20 -25 -4 6 -12 22 -26 35 -32 19 -9 29 -7 54 11 27 20 91 100 91 115 0 18 -22 1 -47 -36z"/> <path d="M1731 815 c-31 -55 -69 -82 -99 -70 -10 4 -12 0 -8 -11 3 -8 6 -18 6 -20 0 -2 10 -4 23 -4 31 0 81 53 106 113 28 64 10 59 -28 -8z"/> </g> </svg> 