<?xml version="1.0" standalone="no"?>
<!DOCTYPE svg PUBLIC "-//W3C//DTD SVG 20010904//EN"
 "http://www.w3.org/TR/2001/REC-SVG-20010904/DTD/svg10.dtd">
<svg version="1.0" xmlns="http://www.w3.org/2000/svg"
 width="300.000000pt" height="209.000000pt" viewBox="0 0 300.000000 209.000000"
 preserveAspectRatio="xMidYMid meet">
<metadata>
Created by potrace 1.10, written by Peter Selinger 2001-2011
</metadata>
<g transform="translate(0.000000,209.000000) scale(0.100000,-0.100000)"
fill="#000000" stroke="none">
<path d="M725 1969 c-251 -41 -449 -226 -517 -483 -28 -108 -25 -276 7 -372
46 -136 101 -202 215 -258 62 -29 71 -31 178 -30 111 1 112 1 119 -24 8 -33
-5 -250 -16 -270 -7 -12 -21 -16 -49 -13 -50 3 -88 -16 -138 -69 -105 -110
-97 -263 17 -324 47 -26 53 -27 98 -16 60 14 111 56 152 123 l31 53 112 -1
c86 0 123 4 166 20 149 53 268 160 395 353 28 43 33 47 64 44 19 -2 45 -11 58
-19 29 -19 64 -11 111 25 35 27 112 40 112 19 0 -6 8 -3 18 6 10 10 22 17 26
17 4 0 19 12 33 26 19 19 31 24 47 18 47 -17 102 -9 140 19 29 23 42 27 70 21
51 -9 89 3 135 42 38 33 44 35 73 25 59 -19 124 9 184 78 20 23 22 24 45 8 62
-44 133 -7 183 95 37 73 39 105 9 140 -18 20 -40 14 -70 -21 -13 -14 -23 -24
-24 -21 0 3 -2 13 -4 22 -4 20 20 48 58 67 15 8 27 20 27 27 0 6 7 14 15 18 8
3 15 16 15 29 0 28 -38 52 -68 42 -12 -3 -30 -1 -42 5 -17 9 -20 21 -20 79 0
65 -2 71 -31 96 -28 23 -34 24 -53 12 -34 -23 -46 -61 -52 -158 -3 -51 -7 -95
-9 -99 -3 -4 -24 -5 -48 -3 -42 5 -47 3 -101 -46 l-57 -52 -34 21 c-46 28 -78
18 -141 -45 -47 -46 -53 -58 -69 -130 -19 -86 -30 -115 -45 -115 -17 0 -11 64
10 105 20 39 49 114 55 145 2 8 10 42 18 75 18 73 22 207 6 236 -36 69 -106
87 -159 43 -61 -52 -88 -134 -96 -294 -3 -63 -7 -126 -10 -138 -5 -23 -6 -23
-29 -8 -32 21 -38 20 -73 -9 -17 -15 -34 -43 -42 -70 l-13 -45 -26 34 c-14 19
-36 39 -48 45 -21 10 -23 17 -23 100 0 86 -5 119 -36 261 -32 143 -90 251
-190 353 -96 97 -200 151 -344 179 -70 14 -260 18 -325 7z m354 -60 c218 -50
365 -189 439 -412 62 -185 76 -373 42 -533 -40 -190 -121 -344 -247 -469 -88
-88 -163 -131 -269 -158 -84 -20 -89 -20 -167 -4 -44 9 -84 14 -89 11 -4 -3
-8 -14 -8 -25 0 -20 -29 -80 -52 -110 -45 -56 -143 -76 -191 -39 -76 60 -48
218 51 285 45 30 61 31 113 4 23 -11 42 -19 44 -17 11 11 25 184 25 315 0 144
-1 155 -17 148 -75 -32 -105 -39 -168 -38 -135 1 -248 71 -300 186 -97 211
-64 464 86 665 142 189 407 261 708 191z m1567 -459 c0 -52 1 -101 2 -107 3
-18 39 -16 96 3 26 9 50 14 53 11 11 -11 -9 -27 -68 -54 -62 -29 -68 -37 -71
-103 -4 -78 2 -121 18 -127 19 -7 41 18 81 94 21 39 30 48 36 37 5 -9 -4 -40
-27 -89 -71 -146 -145 -153 -161 -15 l-7 62 -17 -48 c-37 -109 -101 -184 -158
-184 -21 0 -73 51 -73 73 0 7 -9 -6 -20 -28 -49 -102 -126 -136 -172 -75 l-22
31 -14 -28 c-20 -39 -42 -63 -75 -80 -25 -13 -31 -13 -54 2 -13 9 -32 33 -40
53 l-15 36 -14 -39 c-16 -49 -44 -86 -77 -105 -23 -13 -28 -13 -46 5 -12 10
-25 32 -30 49 l-8 31 -7 -31 c-10 -45 -72 -114 -101 -114 -33 0 -45 27 -46
107 l-1 68 -20 -82 c-11 -46 -24 -83 -29 -83 -17 0 -17 4 18 163 25 117 39
147 70 147 10 0 13 -29 13 -126 0 -142 5 -148 57 -69 22 34 35 69 43 119 15
95 32 140 54 144 17 4 18 -4 12 -125 -8 -143 -1 -172 33 -138 10 11 31 53 45
92 23 67 25 82 20 180 -11 185 20 354 74 408 33 34 81 31 99 -5 33 -66 3 -252
-68 -413 -23 -52 -39 -104 -39 -126 0 -165 108 -115 146 67 7 35 25 83 38 107
30 50 85 82 115 65 28 -15 36 -49 17 -69 -16 -15 -18 -14 -35 8 -23 30 -37 22
-62 -33 -31 -69 -22 -186 15 -186 42 0 107 91 131 184 25 97 84 166 140 166
31 0 51 -36 41 -76 -4 -15 -37 -58 -73 -96 -61 -63 -65 -70 -55 -93 24 -53 84
-25 126 60 46 93 66 189 66 315 0 132 6 162 29 158 13 -3 16 -19 17 -98z
m-372 -356 c22 -9 20 -40 -5 -65 -30 -30 -45 -12 -29 35 13 39 12 39 34 30z"/>
<path d="M715 1865 c-144 -30 -256 -112 -337 -245 -64 -106 -83 -178 -83 -310
0 -132 17 -200 67 -276 62 -91 205 -137 314 -100 89 30 85 12 60 261 -12 121
-24 215 -27 210 -3 -6 -20 -58 -39 -117 -19 -59 -37 -108 -40 -108 -3 0 -20
42 -36 93 l-31 92 -7 -70 c-11 -114 -34 -218 -54 -245 -26 -35 -61 -51 -84
-39 -25 13 -23 27 4 31 19 2 26 15 40 68 20 74 48 272 48 341 0 49 18 76 44
66 7 -3 27 -46 42 -96 16 -50 32 -91 35 -91 3 0 21 48 39 108 44 140 49 151
82 168 25 13 29 13 34 -1 4 -9 -2 -26 -13 -38 -20 -21 -20 -25 -5 -147 8 -69
16 -127 18 -129 2 -2 25 21 53 50 l49 54 -46 6 -47 6 54 1 55 2 -42 36 c-23
19 -51 49 -63 67 -13 18 -19 29 -14 25 11 -10 34 22 35 48 0 32 -42 66 -73 59
-30 -8 -72 -51 -82 -85 -4 -14 -14 -35 -22 -48 l-14 -24 -36 37 c-21 22 -41
34 -50 31 -8 -3 -18 -6 -23 -6 -5 0 -18 -13 -29 -28 -15 -22 -23 -57 -31 -143
-15 -146 -37 -260 -56 -279 -14 -13 -17 -13 -30 5 -24 33 -35 93 -36 199 -1
109 12 169 55 252 102 197 234 274 465 274 310 0 476 -108 567 -368 29 -84 32
-122 9 -122 -26 0 -54 40 -54 75 0 42 -49 92 -76 77 -35 -19 -61 -57 -79 -112
-10 -30 -22 -59 -27 -65 -12 -13 -28 12 -28 46 0 27 -37 69 -61 69 -8 0 -26
-10 -38 -21 -20 -19 -31 -21 -79 -16 l-55 6 48 -49 c47 -48 48 -50 30 -65 -25
-18 -33 -18 -48 -2 -14 14 -18 59 -5 51 18 -11 6 12 -17 35 l-25 23 -1 -38 -2
-39 -6 32 -6 32 -59 -56 -58 -57 12 -124 13 -124 23 37 c12 21 28 70 34 109
19 116 19 116 40 116 19 0 20 -7 20 -99 0 -55 4 -102 9 -106 20 -12 75 92 120
225 26 78 44 105 66 96 12 -4 14 -10 5 -25 -16 -31 -12 -57 15 -89 14 -17 31
-44 39 -62 l13 -32 35 88 c19 49 38 101 41 115 7 29 44 79 58 79 6 0 7 -20 3
-48 -6 -44 -3 -52 23 -83 17 -19 34 -47 40 -63 l9 -29 13 31 c12 30 31 44 31
23 0 -40 -57 -114 -107 -140 -48 -24 -99 -5 -91 36 5 26 38 29 45 4 7 -26 15
-26 36 -3 22 25 21 74 -1 103 -26 31 -43 21 -75 -47 -16 -33 -34 -70 -40 -83
-17 -34 -76 -79 -113 -87 -35 -7 -67 17 -62 45 5 26 44 26 51 0 6 -22 7 -22
27 -4 28 25 27 88 -1 116 -28 28 -34 20 -94 -99 -27 -53 -58 -100 -72 -109
-24 -16 -26 -16 -44 5 l-18 23 -12 -23 c-7 -13 -22 -35 -34 -50 -22 -26 -23
-32 -18 -190 4 -107 1 -194 -7 -253 -21 -149 -25 -138 54 -154 138 -29 275 19
397 139 117 116 192 250 231 410 17 73 19 106 15 230 -14 384 -159 609 -442
684 -87 23 -274 29 -360 11z m302 -510 c9 -25 -4 -29 -17 -6 -7 15 -7 21 0 21
6 0 13 -7 17 -15z m455 -227 c5 -121 -21 -237 -78 -352 -112 -224 -288 -355
-461 -344 -71 4 -73 6 -73 39 2 186 17 490 25 498 6 5 21 11 35 12 14 2 46 19
72 37 39 28 53 32 79 27 20 -5 29 -4 25 3 -3 6 2 8 13 5 19 -5 69 17 109 48
18 14 34 17 73 12 35 -4 49 -2 49 6 0 7 4 10 9 7 9 -6 84 44 96 63 15 26 24 6
27 -61z m-778 15 c3 -21 6 -61 6 -89 0 -68 -14 -79 -104 -79 -61 0 -71 3 -74
19 -2 10 2 22 8 26 7 4 23 39 36 76 22 67 24 69 54 66 16 -2 30 1 30 7 0 6 8
11 19 11 14 0 20 -10 25 -37z"/>
<path d="M865 1471 c21 -22 40 -41 42 -41 2 0 3 17 3 38 0 28 -4 39 -15 39 -8
0 -15 -7 -15 -15 0 -12 -5 -11 -27 3 -22 14 -20 9 12 -24z"/>
<path d="M930 1491 c-6 -12 -10 -31 -8 -42 3 -18 8 -15 43 22 29 30 34 38 16
29 -19 -10 -25 -9 -31 0 -6 9 -11 7 -20 -9z"/>
<path d="M975 1450 l-39 -40 48 0 c43 0 46 1 32 16 -19 19 -20 36 -4 52 7 7
10 12 7 12 -3 0 -23 -18 -44 -40z"/>
<path d="M603 398 c-55 -60 -69 -142 -32 -179 26 -26 62 -19 101 18 24 23 58
98 58 128 0 10 -80 55 -99 55 -4 0 -17 -10 -28 -22z m67 -63 c0 -34 -28 -75
-51 -75 -19 0 -23 10 -19 40 7 53 70 84 70 35z"/>
<path d="M2028 1473 c-8 -10 -21 -34 -27 -53 -14 -41 -32 -311 -22 -323 10
-10 67 136 81 209 13 69 10 176 -6 181 -6 2 -17 -4 -26 -14z"/>
<path d="M2447 1214 c-23 -23 -62 -112 -53 -121 1 -2 24 19 49 46 31 33 47 59
47 76 0 32 -11 32 -43 -1z"/>
</g>
</svg>
